<?xml version="1.0" standalone="no"?>
<!DOCTYPE svg PUBLIC "-//W3C//DTD SVG 1.1//EN" "http://www.w3.org/Graphics/SVG/1.1/DTD/svg11.dtd" >
<svg xmlns="http://www.w3.org/2000/svg">
<metadata>Generated by IcoMoon</metadata>
<defs>
<font id="spm_fonts" horiz-adv-x="1024">
<font-face units-per-em="1024" ascent="960" descent="-64" />
<missing-glyph horiz-adv-x="1024" />
<glyph unicode="&#x20;" horiz-adv-x="512" d="" />
<glyph unicode="&#xe900;" glyph-name="features-import" d="M512-64c-282.77 0-512 229.23-512 512s229.23 512 512 512c282.77 0 512-229.23 512-512s-229.23-512-512-512zM512 911.238c-255.839 0-463.238-207.399-463.238-463.238s207.399-463.238 463.238-463.238c255.839 0 463.238 207.399 463.238 463.238s-207.399 463.238-463.238 463.238zM798.964 175.543h-494.202c-13.465 0-24.381 10.916-24.381 24.381v248.076h48.762v-223.695h445.318l-2.194 368.274h-74.362v48.762h98.499c13.465 0 24.381-10.916 24.381-24.381l2.56-417.036c0-13.465-10.916-24.381-24.381-24.381zM179.322 410.21c-0.002 0-0.005 0-0.008 0-13.251 0-24.033 10.571-24.373 23.74-4.999 181.67 111.298 257.86 229.058 271.026v56.808c0.014 13.454 10.925 24.356 24.381 24.356 5.357 0 10.31-1.727 14.333-4.656l200.098-144.774c6.188-4.479 10.168-11.679 10.168-19.81s-3.979-15.331-10.097-19.761l-200.361-142.19c-3.929-2.826-8.837-4.52-14.141-4.52-13.465 0-24.381 10.916-24.381 24.381 0 0.003 0 0.007 0 0.010v55.832c-108.373 10.484-171.52-87.406-183.589-108.251-4.29-7.332-12.122-12.181-21.088-12.19zM432.762 688.64c0.551-1.868 0.869-4.013 0.869-6.233 0-0.294-0.006-0.588-0.017-0.879-0.319-13.175-11.109-23.767-24.373-23.767-0.474 0-0.945 0.014-1.412 0.040-53.33-2.319-166.092-21.946-196.568-144.46 49.737 46.69 119.71 79.238 202.118 61.928 11.151-2.394 19.388-12.167 19.388-23.864 0-0.182-0.002-0.363-0.006-0.544v-29.474l134.095 95.208-134.095 96.914z" />
<glyph unicode="&#xe901;" glyph-name="features-coordinates" d="M512-64c-282.77 0-512 229.23-512 512s229.23 512 512 512c282.77 0 512-229.23 512-512s-229.23-512-512-512zM512 911.238c-255.839 0-463.238-207.399-463.238-463.238s207.399-463.238 463.238-463.238c255.839 0 463.238 207.399 463.238 463.238s-207.399 463.238-463.238 463.238zM499.81 107.398c-13.465 0-24.381 10.916-24.381 24.381v604.282c-13.027 0.553-23.378 11.248-23.378 24.36 0 7.216 3.135 13.7 8.117 18.164l23.429 20.866c3.935 3.501 9.051 5.752 14.683 6.092l0.068 0.003c0.731 0.074 1.58 0.116 2.438 0.116s1.707-0.042 2.544-0.124c4.18-0.648 7.985-2.334 11.166-4.788l1.772-1.421 22.918-20.724c5.012-4.485 8.152-10.973 8.152-18.195 0-13.031-10.223-23.674-23.087-24.347l-0.060-604.284c0-13.465-10.916-24.381-24.381-24.381zM555.154 574.415h-55.345c-13.465 0-24.381 10.916-24.381 24.381s10.916 24.381 24.381 24.381h55.223c13.465 0 24.381-10.916 24.381-24.381s-10.916-24.381-24.381-24.381zM555.154 643.048h-55.345c-13.465 0-24.381 10.916-24.381 24.381s10.916 24.381 24.381 24.381h55.223c13.465 0 24.381-10.916 24.381-24.381s-10.916-24.381-24.381-24.381zM555.154 503.589h-55.345c-13.465 0-24.381 10.916-24.381 24.381s10.916 24.381 24.381 24.381h55.345c13.465 0 24.381-10.916 24.381-24.381s-10.916-24.381-24.381-24.381zM822.37 433.737h-649.63c-13.465 0-24.381 10.916-24.381 24.381s10.916 24.381 24.381 24.381h605.013c0.191 13.319 11.033 24.042 24.379 24.042 7.468 0 14.152-3.358 18.624-8.646l20.266-24.417c3.575-4.215 5.749-9.716 5.749-15.726 0-13.465-10.916-24.381-24.381-24.381-0.007 0-0.014 0-0.021 0zM802.133 409.112c-0.018 0-0.039 0-0.061 0-13.465 0-24.381 10.916-24.381 24.381 0 5.898 2.094 11.306 5.579 15.523l20.203 24.34c4.422 4.47 10.556 7.239 17.337 7.239 13.465 0 24.381-10.916 24.381-24.381 0-5.012-1.512-9.67-4.105-13.544l-20.181-24.293c-4.432-5.575-11.174-9.15-18.754-9.265zM825.905 289.524c-0.011 0-0.023 0-0.035 0-6.997 0-13.305 2.947-17.751 7.668l-50.236 53.894c-3.717 4.257-5.984 9.863-5.984 15.999 0 13.465 10.916 24.381 24.381 24.381 6.712 0 12.791-2.713 17.2-7.101l50.346-53.881c4.031-4.337 6.505-10.169 6.505-16.579 0-13.465-10.916-24.381-24.381-24.381-0.015 0-0.031 0-0.046 0zM775.558 289.524c-0.011 0-0.023 0-0.036 0-13.465 0-24.381 10.916-24.381 24.381 0 6.469 2.519 12.349 6.63 16.713l50.335 53.87c4.408 4.388 10.487 7.1 17.199 7.1 13.465 0 24.381-10.916 24.381-24.381 0-6.136-2.267-11.743-6.009-16.028l-50.2-53.853c-4.466-4.805-10.821-7.802-17.876-7.802-0.015 0-0.031 0-0.046 0zM382.659 710.217c-13.465 0-24.381 10.916-24.381 24.381v17.189l-15.97 13.166c-6.715 4.416-11.087 11.916-11.087 20.438 0 13.465 10.916 24.381 24.381 24.381 7.266 0 13.79-3.179 18.257-8.222l24.403-20.871c5.207-4.473 8.496-11.053 8.533-18.401v-28.41c0-13.465-10.916-24.381-24.381-24.381zM382.537 738.743c-13.45 0.020-24.346 10.928-24.346 24.381 0 7.27 3.182 13.796 8.229 18.263l24.407 20.868c4.144 3.359 9.481 5.393 15.294 5.393 13.465 0 24.381-10.916 24.381-24.381 0-6.905-2.871-13.14-7.484-17.576l-24.389-20.853c-4.267-3.777-9.909-6.086-16.090-6.095z" />
<glyph unicode="&#xe902;" glyph-name="features-tasks" d="M512-64c-282.77 0-512 229.23-512 512s229.23 512 512 512c282.77 0 512-229.23 512-512s-229.23-512-512-512zM512 911.238c-255.839 0-463.238-207.399-463.238-463.238s207.399-463.238 463.238-463.238c255.839 0 463.238 207.399 463.238 463.238s-207.399 463.238-463.238 463.238zM765.684 152.015h-516.145c-10.099 0-18.286 8.187-18.286 18.286v547.962c0 10.099 8.187 18.286 18.286 18.286h516.145c10.099 0 18.286-8.187 18.286-18.286v-547.962c0-10.099-8.187-18.286-18.286-18.286zM268.19 188.587h479.208v511.39h-479.208zM402.286 542.232h-94.598c-10.099 0-18.286 8.187-18.286 18.286v94.72c0 10.099 8.187 18.286 18.286 18.286h94.598c10.099 0 18.286-8.187 18.286-18.286v-94.598c0-0.036 0-0.079 0-0.122 0-10.099-8.187-18.286-18.286-18.286 0 0 0 0 0 0zM325.973 578.804h58.027v58.027h-58.027zM354.987 576.366c-0.106-0.002-0.231-0.003-0.357-0.003-5.234 0-9.955 2.199-13.288 5.724l-18.050 19.026c-3.33 3.312-5.39 7.898-5.39 12.964 0 10.099 8.187 18.286 18.286 18.286 5.37 0 10.199-2.315 13.544-6.001l4.036-4.282 61.806 73.143c3.377 3.968 8.375 6.469 13.958 6.469 10.103 0 18.294-8.19 18.294-18.294 0-4.521-1.64-8.658-4.357-11.851l-74.95-88.355c-3.26-3.833-8.032-6.296-13.382-6.46zM701.684 616.838h-241.859c-10.099 0-18.286 8.187-18.286 18.286s8.187 18.286 18.286 18.286h241.859c10.099 0 18.286-8.187 18.286-18.286s-8.187-18.286-18.286-18.286zM647.802 563.931h-187.977c-10.099 0-18.286 8.187-18.286 18.286s8.187 18.286 18.286 18.286h187.977c10.099 0 18.286-8.187 18.286-18.286s-8.187-18.286-18.286-18.286zM402.286 371.566h-94.598c-10.099 0-18.286 8.187-18.286 18.286v94.72c0 10.099 8.187 18.286 18.286 18.286h94.598c10.099 0 18.286-8.187 18.286-18.286v-94.598c0-0.036 0-0.079 0-0.122 0-10.099-8.187-18.286-18.286-18.286 0 0 0 0 0 0zM325.973 408.137h58.027v58.027h-58.027zM354.987 405.699c-0.106-0.002-0.231-0.003-0.357-0.003-5.234 0-9.955 2.199-13.288 5.724l-18.050 19.026c-3.33 3.312-5.39 7.898-5.39 12.964 0 10.099 8.187 18.286 18.286 18.286 5.37 0 10.199-2.315 13.544-6.001l4.036-4.282 61.806 73.143c3.377 3.968 8.375 6.469 13.958 6.469 10.103 0 18.294-8.19 18.294-18.294 0-4.521-1.64-8.658-4.357-11.851l-74.95-88.355c-3.26-3.833-8.032-6.296-13.382-6.46zM701.684 446.171h-241.859c-10.099 0-18.286 8.187-18.286 18.286s8.187 18.286 18.286 18.286h241.859c10.099 0 18.286-8.187 18.286-18.286s-8.187-18.286-18.286-18.286zM647.802 393.265h-187.977c-10.099 0-18.286 8.187-18.286 18.286s8.187 18.286 18.286 18.286h187.977c10.099 0 18.286-8.187 18.286-18.286s-8.187-18.286-18.286-18.286zM402.286 206.75h-94.598c-10.099 0-18.286 8.187-18.286 18.286v94.598c0 10.099 8.187 18.286 18.286 18.286h94.598c10.099 0 18.286-8.187 18.286-18.286v-94.598c0-10.099-8.187-18.286-18.286-18.286zM325.973 243.322h58.027v58.392h-58.027zM701.684 281.356h-241.859c-10.099 0-18.286 8.187-18.286 18.286s8.187 18.286 18.286 18.286h241.859c10.099 0 18.286-8.187 18.286-18.286s-8.187-18.286-18.286-18.286zM647.802 228.571h-187.977c-10.099 0-18.286 8.187-18.286 18.286s8.187 18.286 18.286 18.286h187.977c10.099 0 18.286-8.187 18.286-18.286s-8.187-18.286-18.286-18.286z" />
<glyph unicode="&#xe903;" glyph-name="features-bgmaps" d="M512-64c-282.77 0-512 229.23-512 512s229.23 512 512 512c282.77 0 512-229.23 512-512s-229.23-512-512-512zM512 911.238c-255.839 0-463.238-207.399-463.238-463.238s207.399-463.238 463.238-463.238c255.839 0 463.238 207.399 463.238 463.238s-207.399 463.238-463.238 463.238zM208.213 156.404v515.901l211.261 48.762 188.709-42.423 216.747 73.752v-498.347l-214.187-80.701-189.44 35.84zM256.975 633.417v-414.476l162.865 40.107 186.392-35.23 169.813 64v395.947l-165.181-56.198-191.269 42.91zM395.205 695.512l48.762 0.111 1.047-461.408-48.762-0.111-1.047 461.408zM584.124 198.677l1.11 454.216 48.762-0.119-1.11-454.216-48.762 0.119z" />
<glyph unicode="&#xe904;" glyph-name="features-translate" d="M512-64c-282.77 0-512 229.23-512 512s229.23 512 512 512c282.77 0 512-229.23 512-512s-229.23-512-512-512zM512 911.238c-255.839 0-463.238-207.399-463.238-463.238s207.399-463.238 463.238-463.238c255.839 0 463.238 207.399 463.238 463.238s-207.399 463.238-463.238 463.238zM292.571 125.928c-10.099 0-18.286 8.187-18.286 18.286v50.712c-63.62 23.18-110.098 78.926-119.599 146.538-1.444 9.215-2.205 18.724-2.205 28.411 0 64.417 33.668 120.97 84.368 153.023 3.536 2.252 6.951 3.329 10.618 3.329 10.113 0 18.311-8.198 18.311-18.311 0-6.446-3.331-12.115-8.366-15.378-41.357-25.607-68.448-70.653-68.448-122.025 0-8.022 0.661-15.89 1.93-23.552 8.208-58.015 50.306-105.183 105.637-120.822 8.81-2.452 14.415-9.47 14.447-17.801v-29.87c140.678 93.623 163.109 111.055 169.082 187.246-0.986 40.661-17.906 77.188-44.726 103.728-25.841 26.699-61.922 43.328-101.887 43.533-10.137 0-18.324 8.187-18.324 18.286s8.187 18.286 18.286 18.286c50.181-0.22 95.456-21.045 127.833-54.445 33.68-33.664 54.669-79.932 55.266-131.102-7.679-97.638-44.982-122.872-201.995-227.466l-11.337-7.558c-2.845-1.913-6.348-3.054-10.118-3.054-0.172 0-0.343 0.002-0.513 0.007zM712.777 337.554c-0.003 0-0.007 0-0.010 0-3.765 0-7.265 1.138-10.174 3.089l-11.271 7.516c-157.013 104.594-194.316 129.463-201.874 226.255 0.298 51.72 21.342 98.468 55.225 132.39 32.42 33.444 77.695 54.27 127.835 54.489 10.14 0 18.327-8.187 18.327-18.286s-8.187-18.286-18.286-18.286c-40.004-0.205-76.084-16.834-101.875-43.481-27.079-26.904-44.013-63.913-44.653-104.878 5.972-74.97 28.28-92.525 168.593-186.148v29.623c0.033 8.335 5.637 15.353 13.281 17.523 56.498 15.92 98.596 63.089 106.827 121.153 1.24 7.592 1.896 15.436 1.896 23.434 0 51.418-27.139 96.498-67.874 121.696-5.734 3.676-9.074 9.366-9.074 15.835 0 10.16 8.236 18.396 18.396 18.396 3.69 0 7.127-1.087 10.007-2.957 51.318-32.458 84.946-88.981 84.946-153.359 0-9.751-0.772-19.322-2.257-28.656-9.478-67.447-55.844-123.121-118.062-145.946l-1.269-51.12c0-10.099-8.187-18.286-18.286-18.286zM272.701 277.333c-9.866 0.299-17.75 8.367-17.75 18.278 0 2.188 0.384 4.286 1.089 6.23l20.562 48.635 40.35 96.427c2.861 6.592 9.313 11.119 16.823 11.119s13.962-4.527 16.777-11.001l41.371-95.448 21.211-48.762c1.184-2.355 1.878-5.132 1.878-8.072 0-10.099-8.187-18.286-18.286-18.286-7.787 0-14.437 4.867-17.074 11.726l-16.865 37.916h-57.295l-15.848-37.912c-2.921-6.447-9.299-10.851-16.706-10.851-0.084 0-0.168 0.001-0.251 0.002zM333.653 393.752l-12.8-31.086h26.21zM718.263 638.537h-109.714c-6.733 0-12.19 5.458-12.19 12.19s5.458 12.19 12.19 12.19h109.714c6.733 0 12.19-5.458 12.19-12.19s-5.458-12.19-12.19-12.19zM614.644 582.095c-0.013 0-0.028 0-0.043 0-6.733 0-12.19 5.458-12.19 12.19 0 1.764 0.375 3.44 1.049 4.954l24.35 56.242c1.917 4.383 6.215 7.39 11.215 7.39 6.741 0 12.205-5.464 12.205-12.205 0-1.74-0.364-3.396-1.021-4.894l-24.35-56.363c-1.929-4.342-6.204-7.314-11.173-7.314-0.015 0-0.030 0-0.045 0zM699.977 581.12v0l-85.333 0.975c-6.733 0-12.19 5.458-12.19 12.19s5.458 12.19 12.19 12.19v0l85.333-0.975c6.733 0 12.19-5.458 12.19-12.19s-5.458-12.19-12.19-12.19zM709.608 563.322c-4.623 0.013-8.639 2.597-10.696 6.397l-21.365 40.171c-0.899 1.659-1.427 3.633-1.427 5.73 0 6.746 5.469 12.216 12.216 12.216 4.65 0 8.693-2.598 10.757-6.421l21.365-40.171c0.897-1.656 1.424-3.625 1.424-5.718 0-4.62-2.57-8.64-6.358-10.708-1.738-0.953-3.733-1.495-5.854-1.495-0.021 0-0.043 0-0.064 0zM657.31 496.762c-6.733 0-12.19 5.458-12.19 12.19v85.333c0 6.733 5.458 12.19 12.19 12.19s12.19-5.458 12.19-12.19v-85.333c0-6.733-5.458-12.19-12.19-12.19zM711.070 534.918h-102.522c-6.733 0-12.19 5.458-12.19 12.19s5.458 12.19 12.19 12.19h102.644c6.733 0 12.19-5.458 12.19-12.19s-5.458-12.19-12.19-12.19zM708.632 496.762h-102.644c-6.733 0-12.19 5.458-12.19 12.19s5.458 12.19 12.19 12.19h102.644c6.733 0 12.19-5.458 12.19-12.19s-5.458-12.19-12.19-12.19zM754.469 524.678c-6.733 0-12.19 5.458-12.19 12.19v97.524c0 6.733 5.458 12.19 12.19 12.19s12.19-5.458 12.19-12.19v-97.524c0-6.733-5.458-12.19-12.19-12.19z" />
<glyph unicode="&#xe905;" glyph-name="features-data" d="M512-64c-282.77 0-512 229.23-512 512s229.23 512 512 512c282.77 0 512-229.23 512-512s-229.23-512-512-512zM512 911.238c-255.839 0-463.238-207.399-463.238-463.238s207.399-463.238 463.238-463.238c255.839 0 463.238 207.399 463.238 463.238s-207.399 463.238-463.238 463.238zM825.295 167.010h-627.81v562.225h627.81zM234.057 203.581h554.667v489.082h-554.667zM291.962 710.949h36.571v-519.68h-36.571v519.68zM452.023 710.949h36.571v-519.68h-36.571v519.68zM619.642 710.949h36.571v-519.68h-36.571v519.68zM215.771 646.949h591.238v-36.571h-591.238v36.571zM215.771 554.057h591.238v-36.571h-591.238v36.571zM215.771 459.581h591.238v-36.571h-591.238v36.571zM215.771 371.2h591.238v-36.571h-591.238v36.571zM215.771 287.33h591.238v-36.571h-591.238v36.571z" />
<glyph unicode="&#xe906;" glyph-name="feaures-earth" d="M512-64c-282.77 0-512 229.23-512 512s229.23 512 512 512c282.77 0 512-229.23 512-512s-229.23-512-512-512zM512 911.238c-255.839 0-463.238-207.399-463.238-463.238s207.399-463.238 463.238-463.238c255.839 0 463.238 207.399 463.238 463.238s-207.399 463.238-463.238 463.238zM937.57 522.118c-74.728 0-153.356 44.251-241.25 93.745-140.19 78.994-314.514 177.371-545.646 135.314l-8.655 48.030c248.076 45.105 430.933-57.905 578.316-140.8 106.789-60.221 191.269-107.764 263.802-78.629l18.164-45.227c-19.027-7.867-41.122-12.435-64.283-12.435-0.158 0-0.316 0-0.473 0.001zM950.857 284.038c-62.293 0-161.158 38.278-301.958 95.939-100.084 40.96-203.703 83.383-261.608 88.625h-1.219c-175.055 24.381-225.646 12.19-321.463-167.010l-42.545 23.162c105.57 197.851 177.737 219.429 370.834 192.366 65.219-6.095 167.131-47.909 275.017-92.038 116.541-47.665 261.608-107.032 302.811-89.478l19.261-44.861c-10.577-4.281-22.843-6.765-35.691-6.765-1.21 0-2.415 0.022-3.614 0.066zM182.126 99.718l-45.958 16.457c39.497 110.568 151.162 93.013 292.571 70.827 132.267-20.724 296.96-46.568 480.427 8.533l14.019-46.69c-194.072-58.27-372.053-30.354-502.004-9.996-143.97 22.552-213.943 30.354-239.055-39.131z" />
<glyph unicode="&#xe907;" glyph-name="features-license" d="M512-64c-282.77 0-512 229.23-512 512s229.23 512 512 512c282.77 0 512-229.23 512-512s-229.23-512-512-512zM512 911.238c-255.839 0-463.238-207.399-463.238-463.238s207.399-463.238 463.238-463.238c255.839 0 463.238 207.399 463.238 463.238s-207.399 463.238-463.238 463.238zM804.571 288.061h-587.215c-10.099 0-18.286 8.187-18.286 18.286v384c0 10.099 8.187 18.286 18.286 18.286h587.215c10.099 0 18.286-8.187 18.286-18.286v-384c0-10.099-8.187-18.286-18.286-18.286zM236.251 324.632h549.425v347.429h-550.034zM493.105 578.682h-199.558c-10.099 0-18.286 8.187-18.286 18.286s8.187 18.286 18.286 18.286h199.558c10.099 0 18.286-8.187 18.286-18.286s-8.187-18.286-18.286-18.286zM712.533 481.158h-418.987c-10.099 0-18.286 8.187-18.286 18.286s8.187 18.286 18.286 18.286h418.987c10.099 0 18.286-8.187 18.286-18.286s-8.187-18.286-18.286-18.286zM493.105 380.952h-199.558c-10.099 0-18.286 8.187-18.286 18.286s8.187 18.286 18.286 18.286h199.558c10.099 0 18.286-8.187 18.286-18.286s-8.187-18.286-18.286-18.286zM748.861 327.68c0-58.237-37.113-105.448-82.895-105.448s-82.895 47.211-82.895 105.448c0 58.237 37.113 105.448 82.895 105.448s82.895-47.211 82.895-105.448zM596.236 128.244c-13.463 0.003-24.376 10.917-24.376 24.381 0 3.763 0.852 7.327 2.375 10.509l63.449 135.167c4.017 8.313 12.383 13.945 22.065 13.945 13.492 0 24.429-10.937 24.429-24.429 0-3.81-0.872-7.416-2.428-10.629l-63.449-135.169c-4.036-8.218-12.346-13.775-21.953-13.775-0.039 0-0.078 0-0.117 0zM735.695 128.244c-0.065-0.001-0.142-0.001-0.218-0.001-8.977 0-16.821 4.852-21.053 12.076l-75.887 135.795c-2.041 3.5-3.245 7.705-3.245 12.19 0 13.541 10.977 24.518 24.518 24.518 9.055 0 16.963-4.909 21.21-12.21l75.888-135.431c2.054-3.497 3.267-7.702 3.267-12.191 0-13.465-10.916-24.381-24.381-24.381-0.034 0-0.068 0-0.102 0z" />
<glyph unicode="&#xe908;" glyph-name="features-export" d="M512-64c-282.77 0-512 229.23-512 512s229.23 512 512 512c282.77 0 512-229.23 512-512s-229.23-512-512-512zM512 911.238c-255.839 0-463.238-207.399-463.238-463.238s207.399-463.238 463.238-463.238c255.839 0 463.238 207.399 463.238 463.238s-207.399 463.238-463.238 463.238zM798.964 175.543h-494.202c-13.465 0-24.381 10.916-24.381 24.381v248.076h48.762v-223.695h445.318l-2.194 368.274h-74.362v48.762h98.499c13.465 0 24.381-10.916 24.381-24.381l2.56-417.036c0-13.465-10.916-24.381-24.381-24.381zM608.305 410.21c-8.967 0.009-16.8 4.859-21.027 12.075-12.253 20.961-75.521 118.972-183.651 108.366v-55.832c-0.23-13.288-11.056-23.972-24.378-23.972-5.045 0-9.732 1.532-13.621 4.157l-200.569 142.086c-6.188 4.479-10.168 11.679-10.168 19.81s3.979 15.331 10.097 19.761l199.995 144.872c3.953 2.88 8.906 4.607 14.263 4.607 13.456 0 24.367-10.901 24.381-24.354v-56.809c117.76-12.19 234.057-89.356 229.059-270.994-0.341-13.2-11.122-23.771-24.373-23.771-0.003 0-0.005 0-0.008 0zM418.865 580.023c61.539-1.324 116.943-26.537 157.52-66.701-30.496 121.924-143.258 142.16-196.652 144.476-0.549-0.044-1.189-0.069-1.835-0.069-13.275 0-24.072 10.61-24.374 23.812-0.010 0.278-0.016 0.571-0.016 0.865 0 2.22 0.317 4.366 0.909 6.394l-0.040 25.195-134.095-96.914 134.095-95.208v29.623c-0.003 0.154-0.005 0.335-0.005 0.517 0 11.697 8.238 21.471 19.228 23.835 12.851 2.677 27.433 4.193 42.37 4.193 1.018 0 2.034-0.007 3.048-0.021z" />
<glyph unicode="&#xe909;" glyph-name="logo_apps" horiz-adv-x="1023" d="M340.994 431.856q-22.493 18.731-69.672 18.731-44.985 0-67.399-18.496c-13.494-10.198-22.152-26.178-22.257-44.185v-0.017c0.444-18.45 9.532-34.688 23.354-44.874l0.158-0.111c15.674-13.088 39.186-19.593 69.28-19.593s52.587 6.113 67.086 18.339c13.313 10.437 21.787 26.52 21.787 44.582 0 0.004 0 0.008 0 0.012v-0.001c0 0.043 0 0.093 0 0.144 0 18.445-8.694 34.861-22.207 45.371l-0.129 0.097zM608.945 898.635v61.365h-608.945v-1024h608.945v61.443h414.428v901.192zM150.238 786.878c0 23.511 6.426 41.615 19.436 54.155s32.916 19.044 59.797 19.044h161.758v-40.048h-148.279c-1.495 0.073-3.247 0.114-5.009 0.114-10.492 0-20.64-1.473-30.248-4.223l0.774 0.19c-7.237-2.73-13.111-7.693-16.923-14.035l-0.084-0.15c-4.044-6.524-6.441-14.438-6.441-22.911 0-0.404 0.005-0.807 0.016-1.208l-0.001 0.059c-0.015-0.484-0.023-1.052-0.023-1.623 0-15.567 6.33-29.656 16.557-39.833l0.002-0.002q16.615-16.458 52.979-16.458h136.68v-40.048h-153.138c-1.38 0.101-2.989 0.158-4.611 0.158-13.089 0-25.305-3.735-35.641-10.198l0.283 0.165c-8.258-6.849-13.478-17.112-13.478-28.593 0-1.191 0.056-2.368 0.166-3.531l-0.011 0.148c-0.001-0.155-0.002-0.337-0.002-0.52 0-11.426 3.3-22.082 8.999-31.065l-0.14 0.237c6.086-9.36 14.96-16.46 25.433-20.189l0.352-0.109c12.927-4.107 27.796-6.473 43.217-6.473 2.138 0 4.265 0.045 6.381 0.136l-0.302-0.010h122.494v-40.048h-235.976v35.972h33.308c-23.197 14.977-38.336 40.698-38.336 69.955 0 0.507 0.005 1.012 0.014 1.517l-0.001-0.076c-0.042 0.955-0.066 2.076-0.066 3.202 0 14.636 4.045 28.328 11.077 40.018l-0.196-0.351c7.163 10.94 17.645 19.191 30 23.391l0.408 0.121q-41.223 28.214-41.223 73.12zM377.515 74.639c-13.97-16.496-33.66-27.77-55.974-30.75l-0.454-0.050-6.348 39.186c14.594 1.396 27.358 8.27 36.391 18.514l0.052 0.060c7.809 10.603 12.497 23.922 12.497 38.336 0 1.761-0.070 3.506-0.207 5.231l0.015-0.228c0.132 1.525 0.207 3.299 0.207 5.091 0 13.271-4.123 25.579-11.158 35.712l0.136-0.207c-6.094 8.027-15.597 13.193-26.312 13.323h-0.021c-0.122 0.002-0.266 0.003-0.411 0.003-8.87 0-16.626-4.769-20.845-11.882l-0.061-0.112c-5.688-11.755-10.369-25.436-13.354-39.739l-0.204-1.171c-5.293-23.497-11.867-43.808-20.040-63.281l0.918 2.464c-9.338-20.496-29.645-34.488-53.221-34.488-0.246 0-0.491 0.002-0.736 0.005h0.037c-0.116-0.001-0.253-0.001-0.39-0.001-10.532 0-20.44 2.67-29.085 7.371l0.321-0.16c-8.967 4.876-16.413 11.471-22.125 19.4l-0.132 0.193c-5.001 7.277-8.976 15.733-11.462 24.806l-0.137 0.587c-3.036 10.079-4.784 21.662-4.784 33.653 0 0.292 0.001 0.584 0.003 0.875v-0.045c-0.025 0.976-0.040 2.125-0.040 3.278 0 16.278 2.887 31.881 8.177 46.326l-0.3-0.935c4.196 12.704 11.734 23.354 21.579 31.248l0.13 0.101c10.41 7.014 22.837 11.88 36.237 13.667l0.441 0.048 5.486-39.186c-11.654-1.349-21.748-7.135-28.702-15.599l-0.060-0.076c-6.536-9.006-10.455-20.28-10.455-32.469 0-1.233 0.040-2.456 0.119-3.668l-0.009 0.165c0-18.261 3.056-31.349 9.091-39.186 4.701-6.936 12.45-11.499 21.279-11.755l0.038-0.001c0.052 0 0.113-0.001 0.174-0.001 5.261 0 10.095 1.832 13.897 4.893l-0.043-0.033c4.784 4.104 8.435 9.397 10.506 15.425l0.074 0.249c1.489 3.997 4.937 15.674 10.267 35.267 5.646 23.483 11.802 43.076 19.094 62.106l-1.147-3.406c4.496 10.806 11.684 19.732 20.743 26.209l0.182 0.124c9.012 6.064 20.11 9.678 32.053 9.678 0.744 0 1.486-0.014 2.223-0.042l-0.106 0.003c14.033-0.024 27.041-4.389 37.76-11.822l-0.22 0.144c12.061-8.321 21.44-19.742 27.087-33.123l0.187-0.498c6.246-14.239 9.881-30.834 9.881-48.279 0-0.44-0.002-0.88-0.007-1.319l0.001 0.067c0-30.8-6.348-54.233-19.044-70.534zM481.749 287.104h-326.495v36.364h31.349c-11.054 7.621-20.101 17.343-26.732 28.655l-0.228 0.421c-5.699 10.7-9.046 23.4-9.046 36.881 0 0.811 0.012 1.618 0.036 2.423l-0.003-0.118c-0.009 0.488-0.014 1.064-0.014 1.641 0 19.258 5.861 37.146 15.898 51.979l-0.209-0.327c10.763 15.578 25.649 27.614 43.090 34.647l0.641 0.228c17.84 7.442 38.566 11.765 60.302 11.765 0.594 0 1.188-0.003 1.78-0.010l-0.090 0.001c0.738 0.012 1.61 0.020 2.482 0.020 22.621 0 44.129-4.766 63.575-13.348l-1.009 0.397c35.143-15.377 59.332-49.684 59.719-89.686v-0.050c0.007-0.385 0.011-0.84 0.011-1.295 0-12.611-3.106-24.496-8.594-34.932l0.197 0.412c-5.373-10.327-12.505-19.011-21.088-25.979l-0.15-0.118h114.579zM608.945 589.931l1.489 2.351 4.232 10.345 3.683 11.442 4.31 10.345 5.956 7.837 15.674-3.84 16.38-3.292 62.227-19.044 13.793-6.583 15.674-6.348 11.991-4.702 5.408-4.624 1.097-1.881v-6.583l-1.803-3.605-1.881-7.837-2.9-8.307-3.527-13.872-3.683-17.947-4.702-9.953-4.075-12.853-3.762-12.931-3.84-8.856-18.652 7.132-19.201 7.837-13.166 5.408-14.342 4.467-27.743 7.053-10.188 1.803-9.248 2.351-18.887 3.997zM797.82 602.156l1.411 2.194v5.016l0.157 5.799 1.254 17.712v18.104l-0.784 16.615 0.862 9.64 11.129-7.837 12.618-7.837 18.652-13.793 15.674-12.931 14.577-13.558 17.242-15.674 5.956-5.643 4.075-6.662 4.075-6.818 2.665-8.856 3.605-14.812 2.038-14.499 1.881-11.912 0.784-16.615 1.097-14.969v-10.659l-9.013 13.010-9.405 11.285-5.016 6.191-3.762 4.232-1.332 4.467v15.596l-1.724 15.674-2.43 12.931-3.84 10.737h-2.43v-1.489l-1.411-2.194-1.332-2.038v-6.583l-1.019-7.132-0.94-13.637v-9.013l-11.050 5.486-8.699 7.837-38.324 24.295-11.050 5.173-5.721 3.135h-1.489v3.997l0.784 3.135zM811.927 359.675l5.564 5.956 4.624 5.408 4.232 3.84 3.683 4.781 4.467 1.332h3.997l2.038-1.411 2.194-1.332 7.837-6.975 3.683-1.724 2.194-1.332 4.937-6.191 7.367-9.953 7.837-8.464-9.013-13.323-11.599-13.48-12.539-13.95-14.028-13.637-15.674-13.323-15.674-10.659-16.301-9.796-15.674-8.307-9.953 12.383-8.386 11.991-9.796 9.875-9.405 11.285-11.442 9.013-11.129 7.837-9.64 7.367-9.248 8.856 10.423 13.872 9.405 14.812 10.815 16.85 7.837 11.129 5.643 12.539 8.699 18.261 10.11 20.377 5.016 6.897 3.448 0.784 3.605-1.724 4.781-3.683 7.367-3.527 5.173-2.194 4.232-2.665 5.721-3.135 2.978-0.862 34.013-30.643-3.84-8.856-7.445-10.423-5.878-9.953-3.37-7.367zM875.8 366.494l-8.464 11.991-9.953 12.226-9.718 9.875 1.881 7.837 2.508 6.662 2.038 5.173 3.683 4.781 5.643 5.956 3.135 5.721 2.038 5.173 2.508 6.818 4.075 12.931 5.486 14.969 4.467 14.42 2.508 6.662 7.053-7.837 7.837-9.405 5.408-4.624 4.232-2.743 1.254-1.881 1.097-1.959 1.097-1.881-0.784-3.135-1.019-20.141-3.135-18.887-4.31-16.928-6.426-22.179-5.173-10.972-3.292-9.796-4.467-7.837-5.173-4.31zM804.012 568.143l12.618-7.837 9.013-6.426 13.872-10.11 13.166-9.013 6.975-5.016 7.053-7.837 4.467-5.173 1.097-1.959v-1.489l-0.862-3.135-1.724-3.605-3.135-12.383-2.194-11.756-4.781-15.674-6.583-19.593-4.232-10.345-4.937-9.405-4.467-7.837-3.683-4.781-9.169 8.856-11.756 8.778-11.129 7.837-9.64 7.289-10.267 5.173-8.307 5.721-8.464 5.486-1.097 1.881-1.097 1.959 5.173 17.398 6.818 17.163 3.135 12.383 2.743 10.737 4.075 19.436 5.486 21.552 0.784 2.978 0.862 3.135zM784.654 679.431l-1.803-17.242-0.862-22.728-2.9-21.395-2.508-13.166-8.542 1.646-17.712 7.68-8.778 3.84-11.442 3.762-14.969 5.408-15.674 3.84-10.737 2.743-5.564 0.627-4.624 1.097-42.869 10.972 0.549 5.643 1.254 4.624 2.038 5.408 2.743 4.232 4.781 9.326 5.878 9.953 3.84 8.778 3.683 11.442 3.135 5.721 2.978 5.721 2.743 4.232 3.84 2.273 6.113-1.489 5.173-2.194 36.599-8.464 11.285-3.683 12.931-4.075 10.972-5.173 11.912-4.702 7.367-3.527 6.113-1.489 1.097-1.959 2.194-1.332 0.784-3.527zM608.945 501.371l4.937-2.351 7.837-4.467 18.104-6.191 19.436-4.154 35.189-13.010 14.969-5.408 10.345-4.232 7.289-3.448 2.743-2.351 0.784-3.448-1.724-3.605-1.803-3.683-3.135-5.721-5.173-11.050-5.564-10.972-4.624-11.912-4.624-11.991-8.464-14.264-7.837-15.204-3.527-7.289-4.546-7.837-1.724-3.683-3.292-3.213-1.724-3.683-1.803-3.683-10.345 4.232-13.010 6.583-16.223 7.367-16.144 7.367-6.662 2.194zM608.945 344.628v0l7.367-3.448 19.201-7.837 13.010-6.583 12.148-7.132-5.486-8.464-7.837-12.618-9.561-12.539-6.818-10.58-9.248-10.737v-1.489l0.549-0.94-1.411-2.194 1.019 0.549 1.881 1.097 7.837 4.624 6.505 6.505 7.837 7.132 5.173 4.467 13.166 13.010 7.837 7.132 7.132 5.564 10.58-6.818 7.837-6.035 8.934-6.348 10.345-10.815 8.699-7.837 8.542-7.837 8.542-9.796 9.64-12.618-15.674-4.232-14.891-3.605-14.812-3.683-14.969-1.019-14.969-1.097-14.028-0.549-15.282 1.411-16.301 3.292-14.812 2.9-7.837 2.43zM1003.153 17.898h-394.208v94.516h2.978l13.637-1.019 14.028 0.549h13.010l14.028 0.549 13.872 2.978 12.931 2.43 13.872 2.978 12.383 3.448 13.323 3.997 25.471 9.953 24.217 11.912 24.138 14.342 22.493 14.812 20.847 17.634 18.652 19.044 18.182 19.985 15.674 21.317 6.662 10.58 7.132 12.148 6.191 11.521 6.113 11.521 4.702 11.991 5.564 12.461 3.135 12.383 4.075 12.931 1.567 6.113 2.038 5.173 3.762 17.947 5.486 47.023 1.254 17.712v14.577l-0.47 14.028 0.235 14.342-1.097 15.047-2.43 12.931-2.978 13.872-2.586 13.010-3.997 13.323-5.016 12.696-5.564 13.637-4.937 12.696-7.837 12.539-6.74 11.599-7.837 12.539-7.837 11.991-8.934 12.931-12.618 14.734-9.248 8.856-7.837 6.975-8.542 7.837-9.796 9.796-10.737 9.248-9.796 9.875-9.64 7.367-11.129 7.837-10.972 5.173-10.972 5.251-11.050 5.173-8.778 3.84-5.016 3.527-6.818 2.508-12.696 4.232-5.173 2.194-5.173 2.038-8.307 2.9-11.129 1.254-14.264 1.881-13.637 1.019-15.204 1.411-14.028-0.549h-11.599l-7.837-2.038 17.32-2.743 18.261-2.194h10.58l7.837-0.47h7.837l9.248-2.351 5.173-2.038 3.683-1.803 4.624-1.097h4.075l15.674-4.937 11.599-6.191 8.934-6.348 13.088-6.583 14.028-6.035 4.232-2.665 4.702-3.683 9.64-7.367 8.464-5.486 8.464-5.408 11.285-10.267 11.521-12.696 10.58-13.323 8.934-12.931 24.609-39.186 0.549-0.94-1.019-0.549-6.505 6.505-5.564 7.132-6.505 6.583-6.505 6.505-12.383 9.718-13.793 9.953-7.837 6.035-7.837 6.897-8.464 5.486-9.405 4.781-2.038 1.332-2.743 2.351v2.508l-1.724 2.821-1.489 6.975-4.075 6.662-2.665-4.154-1.803-3.683 0.784-3.527v-4.075l-13.872 3.527-12.069 5.251-20.612 6.035-26.098 6.583-22.179 6.191-12.853 4.075 3.135 5.721 2.43 6.818-4.232-3.84-3.213-3.292-4.232-3.762-4.467-1.411-5.564 0.392-14.264 1.959-10.815 1.332h-9.013l3.683-1.724 6.113-1.567 15.674-3.84 7.837-12.539-8.621-9.796-7.132-12.069-2.508-6.818-22.414-36.835-5.564 0.549-4.154 0.47v82.76h1.489l5.564-0.549h4.075l5.408 1.881-5.173 2.194h-11.050v139.971h394.129z" />
<glyph unicode="&#xe90a;" glyph-name="angle-double-right-solid" horiz-adv-x="896" d="M448.6 404.857l-272-272c-18.8-18.8-49.2-18.8-67.8 0l-45.2 45.2c-18.8 18.8-18.8 49.2 0 67.8l192.8 192.8-192.8 192.8c-18.8 18.8-18.8 49.2 0 67.8l45 45.6c18.8 18.8 49.2 18.8 67.8 0l272-272c19-18.8 19-49.2 0.2-68zM832.6 472.857l-272 272c-18.8 18.8-49.2 18.8-67.8 0l-45.2-45.2c-18.8-18.8-18.8-49.2 0-67.8l192.8-192.8-192.8-192.8c-18.8-18.8-18.8-49.2 0-67.8l45.2-45.2c18.8-18.8 49.2-18.8 67.8 0l272 272c18.8 18.4 18.8 48.8 0 67.6z" />
<glyph unicode="&#xe90b;" glyph-name="facebook-f-brands" horiz-adv-x="640" d="M558.28 374.857l28.44 185.32h-177.82v120.26c0 50.7 24.84 100.12 104.48 100.12h80.84v157.78s-73.36 12.52-143.5 12.52c-146.44 0-242.16-88.76-242.16-249.44v-141.24h-162.78v-185.32h162.78v-448h200.34v448z" />
<glyph unicode="&#xe90c;" glyph-name="linkedin-brands" horiz-adv-x="896" d="M832 886.857h-768.2c-35.2 0-63.8-29-63.8-64.6v-766.8c0-35.6 28.6-64.6 63.8-64.6h768.2c35.2 0 64 29 64 64.6v766.8c0 35.6-28.8 64.6-64 64.6zM270.8 118.857h-132.8v427.6h133v-427.6zM204.4 604.857c-42.6 0-77 34.6-77 77s34.4 77 77 77c42.4 0 77-34.6 77-77 0-42.6-34.4-77-77-77zM768.6 118.857h-132.8v208c0 49.6-1 113.4-69 113.4-69.2 0-79.8-54-79.8-109.8v-211.6h-132.8v427.6h127.4v-58.4h1.8c17.8 33.6 61.2 69 125.8 69 134.4 0 159.4-88.6 159.4-203.8v-234.4z" />
<glyph unicode="&#xe90d;" glyph-name="twitter-brands" d="M918.74 647.425c0.65-9.096 0.65-18.194 0.65-27.29 0-277.44-211.166-597.116-597.116-597.116-118.904 0-229.36 34.438-322.274 94.212 16.894-1.948 33.136-2.598 50.68-2.598 98.11 0 188.426 33.136 260.548 89.664-92.264 1.95-169.584 62.376-196.224 145.544 12.996-1.948 25.99-3.248 39.636-3.248 18.842 0 37.686 2.6 55.228 7.146-96.162 19.494-168.286 103.96-168.286 205.97v2.598c27.938-15.594 60.428-25.34 94.862-26.638-56.528 37.686-93.562 102.010-93.562 174.782 0 38.984 10.394 74.72 28.588 105.908 103.31-127.35 258.6-210.516 432.73-219.614-3.248 15.594-5.198 31.836-5.198 48.080 0 115.656 93.564 209.868 209.868 209.868 60.426 0 115.004-25.34 153.34-66.274 47.43 9.096 92.912 26.64 133.198 50.68-15.596-48.732-48.732-89.666-92.264-115.654 42.234 4.546 83.168 16.244 120.852 32.486-28.584-41.582-64.322-78.616-105.256-108.506z" />
<glyph unicode="&#xe90e;" glyph-name="youtube-brands" horiz-adv-x="1152" d="M1099.31 702.691c-12.562 47.3-49.574 84.552-96.568 97.194-85.18 22.972-426.742 22.972-426.742 22.972s-341.56 0-426.742-22.972c-46.994-12.644-84.006-49.894-96.568-97.194-22.824-85.734-22.824-264.61-22.824-264.61s0-178.876 22.824-264.61c12.562-47.3 49.574-83 96.568-95.642 85.182-22.972 426.742-22.972 426.742-22.972s341.56 0 426.742 22.972c46.994 12.642 84.006 48.342 96.568 95.642 22.824 85.734 22.824 264.61 22.824 264.61s0 178.876-22.824 264.61zM464.29 275.675v324.812l285.478-162.41-285.478-162.402z" />
<glyph unicode="&#xe90f;" glyph-name="chevron-right" horiz-adv-x="640" d="M570.952 404.915l-388.688-388.686c-18.746-18.746-49.138-18.746-67.882 0l-45.334 45.334c-18.714 18.714-18.75 49.044-0.080 67.802l308.042 309.492-308.042 309.49c-18.67 18.758-18.634 49.088 0.080 67.802l45.334 45.334c18.746 18.746 49.138 18.746 67.882 0l388.686-388.686c18.746-18.744 18.746-49.136 0.002-67.882z" />
<glyph unicode="&#xf00c;" glyph-name="check" d="M954.857 627.428c0-14.286-5.714-28.571-16-38.857l-491.429-491.429c-10.286-10.286-24.571-16-38.857-16s-28.571 5.714-38.857 16l-284.571 284.571c-10.286 10.286-16 24.571-16 38.857s5.714 28.571 16 38.857l77.714 77.714c10.286 10.286 24.571 16 38.857 16s28.571-5.714 38.857-16l168-168.571 374.857 375.429c10.286 10.286 24.571 16 38.857 16s28.571-5.714 38.857-16l77.714-77.714c10.286-10.286 16-24.571 16-38.857z" />
<glyph unicode="&#xf00d;" glyph-name="uncheck" horiz-adv-x="805" d="M741.714 195.428c0-14.286-5.714-28.571-16-38.857l-77.714-77.714c-10.286-10.286-24.571-16-38.857-16s-28.571 5.714-38.857 16l-168 168-168-168c-10.286-10.286-24.571-16-38.857-16s-28.571 5.714-38.857 16l-77.714 77.714c-10.286 10.286-16 24.571-16 38.857s5.714 28.571 16 38.857l168 168-168 168c-10.286 10.286-16 24.571-16 38.857s5.714 28.571 16 38.857l77.714 77.714c10.286 10.286 24.571 16 38.857 16s28.571-5.714 38.857-16l168-168 168 168c10.286 10.286 24.571 16 38.857 16s28.571-5.714 38.857-16l77.714-77.714c10.286-10.286 16-24.571 16-38.857s-5.714-28.571-16-38.857l-168-168 168-168c10.286-10.286 16-24.571 16-38.857z" />
<glyph unicode="&#xf078;" glyph-name="chevron-down" d="M961.714 489.143l-424-423.429c-14.286-14.286-37.143-14.286-51.429 0l-424 423.429c-14.286 14.286-14.286 37.714 0 52l94.857 94.286c14.286 14.286 37.143 14.286 51.429 0l303.429-303.429 303.429 303.429c14.286 14.286 37.143 14.286 51.429 0l94.857-94.286c14.286-14.286 14.286-37.714 0-52z" />
<glyph unicode="&#xf07a;" glyph-name="shopping-cart" horiz-adv-x="951" d="M365.714 73.143c0-40-33.143-73.143-73.143-73.143s-73.143 33.143-73.143 73.143 33.143 73.143 73.143 73.143 73.143-33.143 73.143-73.143zM877.714 73.143c0-40-33.143-73.143-73.143-73.143s-73.143 33.143-73.143 73.143 33.143 73.143 73.143 73.143 73.143-33.143 73.143-73.143zM950.857 694.857v-292.571c0-18.286-14.286-34.286-32.571-36.571l-596.571-69.714c2.857-13.143 7.429-26.286 7.429-40 0-13.143-8-25.143-13.714-36.571h525.714c20 0 36.571-16.571 36.571-36.571s-16.571-36.571-36.571-36.571h-585.143c-20 0-36.571 16.571-36.571 36.571 0 17.714 25.714 60.571 34.857 78.286l-101.143 470.286h-116.571c-20 0-36.571 16.571-36.571 36.571s16.571 36.571 36.571 36.571h146.286c38.286 0 39.429-45.714 45.143-73.143h686.286c20 0 36.571-16.571 36.571-36.571z" />
<glyph unicode="&#xf18e;" glyph-name="arrow-circle-o-right" horiz-adv-x="878" d="M658.286 438.857c0-4.571-1.714-9.714-5.143-13.143l-182.857-182.857c-3.429-3.429-8.571-5.143-13.143-5.143-9.714 0-18.286 8.571-18.286 18.286v109.714h-201.143c-9.714 0-18.286 8.571-18.286 18.286v109.714c0 9.714 8.571 18.286 18.286 18.286h201.143v109.714c0 10.286 8 18.286 18.286 18.286 5.143 0 9.714-2.286 13.714-5.714l182.286-182.286c3.429-3.429 5.143-8.571 5.143-13.143zM749.714 438.857c0 171.429-139.429 310.857-310.857 310.857s-310.857-139.429-310.857-310.857 139.429-310.857 310.857-310.857 310.857 139.429 310.857 310.857zM877.714 438.857c0-242.286-196.571-438.857-438.857-438.857s-438.857 196.571-438.857 438.857 196.571 438.857 438.857 438.857 438.857-196.571 438.857-438.857z" />
</font>
</defs>
</svg>
