<svg xmlns="http://www.w3.org/2000/svg" viewBox="0 0 84 84"><defs><style>.cls-1{fill:none;stroke-width:4px;}.cls-1,.cls-2{stroke:#3f92ff;stroke-miterlimit:10;}.cls-2{fill:#3f92ff;}</style></defs><title>Recurso 10</title><g id="Capa_2" data-name="Capa 2"><g id="Sección_2_Features" data-name="Sección 2 Features"><circle class="cls-1" cx="42" cy="42" r="40"/><path class="cls-2" d="M22.26,55.38a1,1,0,0,0,1.29-.53l1.31-3.16H29.8l1.35,3.17A1,1,0,1,0,33,54.08l-1.6-3.76h0L28.2,42.88a1,1,0,0,0-.91-.6h0a1,1,0,0,0-.91.61l-3.08,7.42h0l-1.56,3.77A1,1,0,0,0,22.26,55.38Zm5-9.56L29,49.71H25.69Z"/><path class="cls-2" d="M27.35,34.28a1,1,0,0,0,0,2h0a12.33,12.33,0,0,1,8.92,3.67,11.93,11.93,0,0,1,3.45,8.68,12.55,12.55,0,0,1-5.18,10.07l-.1.08-.14.1-.12.08-9.31,6.37V61.53a1,1,0,0,0-.73-1,12.35,12.35,0,0,1-3.22-22.5,1,1,0,1,0-1-1.69,14.33,14.33,0,0,0,3,25.88v4.92a1,1,0,0,0,1.55.82L35.3,60.58l.13-.09.27-.18.14-.11A14.52,14.52,0,0,0,41.7,48.65a13.89,13.89,0,0,0-4-10.11A14.29,14.29,0,0,0,27.35,34.28Z"/><path class="cls-2" d="M56.65,17.07A14.34,14.34,0,0,0,48.16,43l.14.11.26.18.13.09,10.86,7.42A1,1,0,0,0,61.1,50V44.32a1,1,0,0,0-2,0V48.1L49.8,41.73l-.11-.08-.14-.09-.1-.08A12.37,12.37,0,1,1,69,31.42a12.23,12.23,0,0,1-3.91,9,1,1,0,1,0,1.35,1.44,14.34,14.34,0,0,0-9.81-24.81Z"/><path class="cls-2" d="M49.95,35.8a1,1,0,0,0,0,2h8.4a1,1,0,1,0,0-2H55.14v-.9h3.21a1,1,0,1,0,0-2H55.14v-2h1.65l.32.64a1,1,0,0,0,1.77-.88L57.56,28a1,1,0,0,0-1.77.88v0H51.93l1.49-2.44h5.15a1,1,0,1,0,0-2H50.28a1,1,0,0,0,0,2h.83l-1.78,2.92a1,1,0,0,0,.84,1.5h3v2H49.95a1,1,0,1,0,0,2h3.21v.9H49.95Z"/><path class="cls-2" d="M60.89,35.67a1,1,0,0,0,1-1v-8a1,1,0,0,0-2,0v8A1,1,0,0,0,60.89,35.67Z"/><path class="cls-2" d="M60,40.54h.11a4.84,4.84,0,0,0,4.83-4.83V25.58a1,1,0,0,0-2,0V35.71a2.86,2.86,0,0,1-2.85,2.85H60a1,1,0,1,0,0,2Z"/></g></g></svg>