<svg xmlns="http://www.w3.org/2000/svg" viewBox="0 0 84 84"><defs><style>.cls-1{fill:none;stroke-width:4px;}.cls-1,.cls-2{stroke:#3f92ff;stroke-miterlimit:10;}.cls-2{fill:#3f92ff;}</style></defs><title>Recurso 7</title><g id="Capa_2" data-name="Capa 2"><g id="Sección_2_Features" data-name="Sección 2 Features"><circle class="cls-1" cx="42" cy="42" r="40"/><path class="cls-2" d="M31.52,13.49a1,1,0,0,0-.72,1.65l1.64,1.64v1.5a1,1,0,0,0,1.91,0s0,0,0,0v-1.5L36,15.15a1,1,0,1,0-1.35-1.35L33.39,15,32.15,13.8a.94.94,0,0,0-.63-.3Zm9.48,0a1,1,0,0,0-.66.28l-1.91,1.91a1,1,0,1,0,1.33,1.36l0,0,.28-.28V40.21H14.33a1,1,0,1,0,0,1.91H40.06V67.85a1,1,0,1,0,1.91,0V42.11H65.4l-.28.28a1,1,0,1,0,1.35,1.35l1.81-1.81a1,1,0,0,0,.2-1.33l-.1-.11-1.91-1.91a1,1,0,1,0-1.35,1.35l.28.28H59.13v-1a1,1,0,1,0-1.91,0v1H53.41v-1a1,1,0,1,0-1.91,0v1H47.69v-1a1,1,0,1,0-1.91,0v1H42V36.39h1a1,1,0,1,0,0-1.91H42V30.68h1a1,1,0,1,0,0-1.91H42V25h1a1,1,0,1,0,0-1.91H42V16.77l.28.28a1,1,0,0,0,1.36-1.33l0,0L41.69,13.8a1,1,0,0,0-.69-.28Zm-7.62,32.4a2.63,2.63,0,0,0-2.14,1.26,4.89,4.89,0,0,0,0,5.1,2.45,2.45,0,0,0,4.28,0,4.89,4.89,0,0,0,0-5.1A2.63,2.63,0,0,0,33.38,45.92Zm30.5,0a1,1,0,0,0-.66,1.64l1.23,1.23L63.22,50a1,1,0,1,0,1.33,1.36l0,0,1.23-1.23L67,51.37A1,1,0,1,0,68.39,50l0,0-1.23-1.23,1.23-1.23A1,1,0,1,0,67,46.21L65.8,47.44l-1.23-1.23a1,1,0,0,0-.68-.29Zm-30.5,1.91c.14,0,.33.08.55.41a3,3,0,0,1,0,3c-.22.33-.41.41-.55.41s-.33-.08-.55-.41a3,3,0,0,1,0-3C33,47.9,33.24,47.82,33.38,47.82Z"/></g></g></svg>