<svg xmlns="http://www.w3.org/2000/svg" viewBox="0 0 84 84"><defs><style>.cls-1{fill:none;stroke-width:4px;}.cls-1,.cls-2{stroke:#3f92ff;stroke-miterlimit:10;}.cls-2{fill:#3f92ff;}</style></defs><title>Recurso 3</title><g id="Capa_2" data-name="Capa 2"><g id="Sección_2_Features" data-name="Sección 2 Features"><circle class="cls-1" cx="42" cy="42" r="40"/><path class="cls-2" d="M14.21,45a1.2,1.2,0,0,0,.34,0,1.36,1.36,0,0,0,1.17-.68c5.13-9,10.48-9.65,16.58-9.69v5.41a1.34,1.34,0,0,0,2.12,1.09l16.67-12a1.35,1.35,0,0,0,0-2.18L34.4,15.07a1.33,1.33,0,0,0-2.11,1.09v5.5c-7.66.65-13.11,3.64-16.17,8.89-2.61,4.45-2.91,9.62-2.91,13.13A1.34,1.34,0,0,0,14.21,45ZM33.7,24.25A1.33,1.33,0,0,0,35,22.92V18.77L48,28.1,35,37.47V33.32a1.36,1.36,0,0,0-.39-.95,1.34,1.34,0,0,0-.95-.39h0c-5.87,0-11.91,0-17.45,6.89C17.13,32,20.82,24.9,33.7,24.25Z"/><path class="cls-2" d="M57.29,29.45H64.1V61.13H26.3V41.94a1.34,1.34,0,1,0-2.67,0V62.48A1.34,1.34,0,0,0,25,63.82H65.43a1.34,1.34,0,0,0,1.34-1.34V28.1a1.34,1.34,0,0,0-1.34-1.34H57.28a1.34,1.34,0,0,0-1.34,1.34A1.36,1.36,0,0,0,57.29,29.45Z"/></g></g></svg>