<svg xmlns="http://www.w3.org/2000/svg" viewBox="0 0 84 84"><defs><style>.cls-1{fill:none;stroke-width:4px;}.cls-1,.cls-2{stroke:#3f92ff;stroke-miterlimit:10;}.cls-2{fill:#3f92ff;}</style></defs><title>Recurso 8</title><g id="Capa_2" data-name="Capa 2"><g id="Sección_2_Features" data-name="Sección 2 Features"><circle class="cls-1" cx="42" cy="42" r="40"/><path class="cls-2" d="M66.63,19a.89.89,0,0,0-.8-.12L50,24.09l-14.9-3.51H35a.91.91,0,0,0-.29,0l-16,3.56A.89.89,0,0,0,18,25V63.33a.89.89,0,0,0,.89.89l.19,0,15.86-3.53,15,2.64h.16a.89.89,0,0,0,.31-.06h0l16-6.24A.89.89,0,0,0,67,56.2V19.67A.89.89,0,0,0,66.63,19ZM19.78,25.73,34,22.57V59L19.78,62.22Zm16-3.15,13.36,3.14V61.37L35.82,59Zm29.4,33L51,61.13V25.66l14.25-4.75Z"/></g></g></svg>