<svg xmlns="http://www.w3.org/2000/svg" viewBox="0 0 84 84"><defs><style>.cls-1{fill:none;stroke-width:4px;}.cls-1,.cls-2{stroke:#3f92ff;stroke-miterlimit:10;}.cls-2{fill:#3f92ff;}</style></defs><title>Recurso 9</title><g id="Capa_2" data-name="Capa 2"><g id="Sección_2_Features" data-name="Sección 2 Features"><circle class="cls-1" cx="42" cy="42" r="40"/><path class="cls-2" d="M59.79,20.65H24.21A2.22,2.22,0,0,0,22,22.87V60.79A2.22,2.22,0,0,0,24.21,63H59.79A2.22,2.22,0,0,0,62,60.79V22.87A2.22,2.22,0,0,0,59.79,20.65Zm.91,40.13a.91.91,0,0,1-.91.91H24.21a.91.91,0,0,1-.91-.91V22.87a.91.91,0,0,1,.91-.91H59.79a.91.91,0,0,1,.91.91Z"/><path class="cls-2" d="M30.47,48.8H27.73A2.22,2.22,0,0,0,25.52,51v2.74A2.22,2.22,0,0,0,27.73,56h2.74a2.22,2.22,0,0,0,2.21-2.21V51A2.22,2.22,0,0,0,30.47,48.8Zm.91,5a.91.91,0,0,1-.91.91H27.73a.91.91,0,0,1-.91-.91V51a.91.91,0,0,1,.91-.91h2.74a.91.91,0,0,1,.91.91Z"/><path class="cls-2" d="M32.26,28.61a2.21,2.21,0,0,0-1.79-.92H27.73a2.22,2.22,0,0,0-2.21,2.21v2.74a2.22,2.22,0,0,0,2.21,2.21h2.74a2.22,2.22,0,0,0,2.21-2.21V29.91c0-.07,0-.14,0-.21L34.33,28l-.75-.75Zm-.88,4a.91.91,0,0,1-.91.91H27.73a.91.91,0,0,1-.91-.91V29.91a.91.91,0,0,1,.91-.91h2.74a.91.91,0,0,1,.84.56l-2,2L28,30.21l-.74.74L29,32.71h0l.32.32,2-2Z"/><path class="cls-2" d="M33.58,37.84l-1.32,1.32a2.21,2.21,0,0,0-1.79-.92H27.73a2.22,2.22,0,0,0-2.21,2.21V43.2a2.22,2.22,0,0,0,2.21,2.21h2.74a2.22,2.22,0,0,0,2.21-2.21V40.46c0-.07,0-.14,0-.21l1.66-1.66Zm-2.2,5.35a.91.91,0,0,1-.91.91H27.73a.91.91,0,0,1-.91-.91V40.46a.91.91,0,0,1,.91-.91h2.74a.91.91,0,0,1,.84.56l-2,2L28,40.76l-.74.74L29,43.27h0l.32.32,2-2Z"/><rect class="cls-2" x="35.55" y="28.34" width="19.93" height="1.17"/><rect class="cls-2" x="35.55" y="30.69" width="10.55" height="1.17"/><rect class="cls-2" x="35.55" y="40.07" width="19.93" height="1.17"/><rect class="cls-2" x="35.55" y="42.41" width="16.42" height="1.17"/><rect class="cls-2" x="35.55" y="50.62" width="18.76" height="1.17"/></g></g></svg>