<svg xmlns="http://www.w3.org/2000/svg" viewBox="0 0 84 84"><defs><style>.cls-1,.cls-3{fill:none;}.cls-1,.cls-2{stroke:#3f92ff;stroke-miterlimit:10;}.cls-1{stroke-width:4px;}.cls-2{fill:#3f92ff;}</style></defs><title>Recurso 4</title><g id="Capa_2" data-name="Capa 2"><g id="Sección_2_Features" data-name="Sección 2 Features"><circle class="cls-1" cx="42" cy="42" r="40"/><path class="cls-2" d="M51.63,43.69c0-3.5-.31-8.68-2.91-13.13-3.07-5.25-8.51-8.24-16.17-8.89v-5.5a1.33,1.33,0,0,0-2.11-1.09L13.77,27a1.35,1.35,0,0,0,0,2.18l16.67,12a1.34,1.34,0,0,0,2.12-1.09V34.65c6.1,0,11.45.65,16.58,9.69A1.36,1.36,0,0,0,50.3,45a1.2,1.2,0,0,0,.34,0A1.34,1.34,0,0,0,51.63,43.69Zm-3-4.82C43.13,32,37.1,32,31.23,32h0a1.34,1.34,0,0,0-.95.39,1.36,1.36,0,0,0-.39.95v4.15l-13-9.36,13-9.33v4.15a1.33,1.33,0,0,0,1.27,1.33C44,24.9,47.72,32,48.68,38.86Z"/><path class="cls-2" d="M57.29,29.45H64.1V61.13H26.3V41.94a1.34,1.34,0,1,0-2.67,0V62.48A1.34,1.34,0,0,0,25,63.82H65.43a1.34,1.34,0,0,0,1.34-1.34V28.1a1.34,1.34,0,0,0-1.34-1.34H57.28a1.34,1.34,0,0,0-1.34,1.34A1.36,1.36,0,0,0,57.29,29.45Z"/><line class="cls-3" x1="63.83" y1="15.83" x2="63.83" y2="15.83"/></g></g></svg>