<svg xmlns="http://www.w3.org/2000/svg" viewBox="0 0 84 84"><defs><style>.cls-1{fill:none;stroke:#3f92ff;stroke-miterlimit:10;stroke-width:4px;}.cls-2{fill:#3f92ff;}</style></defs><title>Recurso 11</title><g id="Capa_2" data-name="Capa 2"><g id="Sección_2_Features" data-name="Sección 2 Features"><circle class="cls-1" cx="42" cy="42" r="40"/><path class="cls-2" d="M64.39,20.07H19.61A3.61,3.61,0,0,0,16,23.67V51.89a3.61,3.61,0,0,0,3.61,3.61H47.23a11.47,11.47,0,0,1-.76-3.58l-26.92,0,.05-28.27,44.84.05V51.89a.05.05,0,0,1-.05.05H62.78A11.44,11.44,0,0,1,62,55.5h2.37A3.61,3.61,0,0,0,68,51.89V23.67A3.61,3.61,0,0,0,64.39,20.07Z"/><path class="cls-2" d="M54.62,59.4c3.53,0,6.4-3.62,6.4-8.09s-2.86-8.08-6.4-8.08-6.4,3.62-6.4,8.08S51.09,59.4,54.62,59.4Z"/><path class="cls-2" d="M24.59,31.56H40.44a1.78,1.78,0,1,0,0-3.56H24.59a1.78,1.78,0,0,0,0,3.56Z"/><path class="cls-2" d="M60,37.78A1.78,1.78,0,0,0,58.22,36H24.59a1.78,1.78,0,0,0,0,3.56H58.22A1.78,1.78,0,0,0,60,37.78Z"/><path class="cls-2" d="M24.59,44a1.78,1.78,0,0,0,0,3.56H40.44a1.78,1.78,0,1,0,0-3.56Z"/><path class="cls-2" d="M60,58.7s-2.47,2.85-5.91,2.45l4.27,8.65a.31.31,0,0,0,.28.17h0a.31.31,0,0,0,.27-.22L60,66.44a.32.32,0,0,1,.16-.18.33.33,0,0,1,.14,0l.1,0,3.28,1.15.1,0a.31.31,0,0,0,.28-.45Z"/><path class="cls-2" d="M49.24,58.72l0,0L45.13,67a.31.31,0,0,0,.28.45l.1,0,3.28-1.15.1,0a.31.31,0,0,1,.3.22l1.08,3.31a.31.31,0,0,0,.27.21h0a.31.31,0,0,0,.28-.17l2.78-5.62-1.78-3.59A7.59,7.59,0,0,1,49.24,58.72Z"/></g></g></svg>