<svg xmlns="http://www.w3.org/2000/svg" viewBox="0 0 84 84"><defs><style>.cls-1{fill:none;stroke-width:4px;}.cls-1,.cls-2{stroke:#3f92ff;stroke-miterlimit:10;}.cls-2{fill:#3f92ff;}</style></defs><title>Recurso 6</title><g id="Capa_2" data-name="Capa 2"><g id="Sección_2_Features" data-name="Sección 2 Features"><circle class="cls-1" cx="42" cy="42" r="40"/><path class="cls-2" d="M65.13,19.45H18.87A1.87,1.87,0,0,0,17,21.32V62.25a1.86,1.86,0,0,0,.8,1.53v.29h.67a1.85,1.85,0,0,0,.4,0H65.13a1.85,1.85,0,0,0,.4,0h.09v0A1.87,1.87,0,0,0,67,62.25V21.32A1.87,1.87,0,0,0,65.13,19.45Zm-40.75,43H18.73a.26.26,0,0,1-.13-.22V57.4h5.78Zm0-6.67H18.6V50.54h5.78Zm0-6.86H18.6V43.39h5.78Zm0-7.15H18.6v-6h5.78Zm0-7.61H18.6V28.31h5.78ZM37.86,62.47H26V57.4H37.86v5.07Zm0-6.67H26V50.54H37.86V55.8Zm0-6.86H26V43.39H37.86v5.55Zm0-7.15H26v-6H37.86v6Zm0-7.61H26V28.31H37.86v5.87Zm0-7.47H26V21.05H37.86V26.7ZM51.48,62.47h-12V57.4h12Zm0-6.67h-12V50.54h12Zm0-6.86h-12V43.39h12Zm0-7.15h-12v-6h12Zm0-7.61h-12V28.31h12Zm0-7.47h-12V21.05h12ZM65.4,62.25a.26.26,0,0,1-.13.22H53.08V57.4H65.4Zm0-6.45H53.08V50.54H65.4Zm0-6.86H53.08V43.39H65.4Zm0-7.15H53.08v-6H65.4Zm0-7.61H53.08V28.31H65.4Zm0-7.47H53.08V21.05H65.13a.27.27,0,0,1,.27.27V26.7Z"/></g></g></svg>