<svg xmlns="http://www.w3.org/2000/svg" viewBox="0 0 252.1 37.49"><defs><style>.cls-1{fill:#fff;}</style></defs><title>Recurso 1</title><g id="Capa_2" data-name="Capa 2"><g id="nav_main"><path class="cls-1" d="M20.44,29.19h-15a6.69,6.69,0,0,1-3-.61A3.87,3.87,0,0,1,.6,26.69,8,8,0,0,1,0,23.34V13.2A8.09,8.09,0,0,1,.6,9.84,3.93,3.93,0,0,1,2.38,7.93a6.57,6.57,0,0,1,3-.62h15a6.61,6.61,0,0,1,3.06.63,3.9,3.9,0,0,1,1.8,1.95,8.19,8.19,0,0,1,.58,3.32V23.34a8.11,8.11,0,0,1-.58,3.31,3.84,3.84,0,0,1-1.81,1.92A6.73,6.73,0,0,1,20.44,29.19ZM9.38,25.73H16.5a1.43,1.43,0,0,0,1.07-.33,1.83,1.83,0,0,0,.3-1.23V12.32a1.94,1.94,0,0,0-.28-1.23,1.42,1.42,0,0,0-1.09-.33H9.38a1.36,1.36,0,0,0-1.09.35A2,2,0,0,0,8,12.32V24.17a1.89,1.89,0,0,0,.29,1.2A1.36,1.36,0,0,0,9.38,25.73Z"/><path class="cls-1" d="M36.56,7.31,37,9.38h.09A3.05,3.05,0,0,1,38,7.87a2,2,0,0,1,1.44-.56H49.45a6.61,6.61,0,0,1,3.06.63,3.9,3.9,0,0,1,1.8,1.95,8.19,8.19,0,0,1,.58,3.32V23.34a8.11,8.11,0,0,1-.58,3.31,3.84,3.84,0,0,1-1.81,1.92,6.73,6.73,0,0,1-3,.62H39.78a2.17,2.17,0,0,1-1.53-.45A5.34,5.34,0,0,1,37.19,27H37v5.58a20.34,20.34,0,0,0,.45,4.92H29V12.23a20.61,20.61,0,0,0-.47-4.92Zm8.95,3.46H38.39a1.36,1.36,0,0,0-1.09.35,2,2,0,0,0-.28,1.2V24.17a1.89,1.89,0,0,0,.29,1.2,1.36,1.36,0,0,0,1.08.35h7.12a1.43,1.43,0,0,0,1.07-.33,1.83,1.83,0,0,0,.3-1.23V12.32a1.94,1.94,0,0,0-.28-1.23A1.42,1.42,0,0,0,45.51,10.77Z"/><path class="cls-1" d="M83.9,20.26H66v3.91a1.9,1.9,0,0,0,.29,1.2,1.36,1.36,0,0,0,1.08.35h14a14.24,14.24,0,0,0,2.54-.27l-.65,3.73H63.44a6.69,6.69,0,0,1-3-.61,3.87,3.87,0,0,1-1.8-1.89,8,8,0,0,1-.6-3.35V13.2a8.09,8.09,0,0,1,.6-3.36A3.93,3.93,0,0,1,60.4,7.93a6.57,6.57,0,0,1,3-.62h15a6.61,6.61,0,0,1,3.06.63,3.9,3.9,0,0,1,1.8,1.95,8.19,8.19,0,0,1,.58,3.32ZM66,16.8h9.87V12.32a1.94,1.94,0,0,0-.28-1.23,1.42,1.42,0,0,0-1.09-.33H67.4a1.36,1.36,0,0,0-1.09.35,2,2,0,0,0-.28,1.2Z"/><path class="cls-1" d="M87.14,7.31h8l.18,2.27h.09a4.17,4.17,0,0,1,1-1.79,2.21,2.21,0,0,1,1.53-.48h9.85a6.61,6.61,0,0,1,3.06.63,3.9,3.9,0,0,1,1.8,1.95,8.19,8.19,0,0,1,.58,3.32V24.26a20.36,20.36,0,0,0,.45,4.92H104.7a20.07,20.07,0,0,0,.47-4.92V12.32a1.85,1.85,0,0,0-.3-1.2,1.4,1.4,0,0,0-1.09-.35H97a1.36,1.36,0,0,0-1.09.35,2,2,0,0,0-.28,1.2V24.26A20.34,20.34,0,0,0,96,29.19h-8.9a20.36,20.36,0,0,0,.45-4.92v-12A20.87,20.87,0,0,0,87.14,7.31Z"/><path class="cls-1" d="M137.08,10.77H126.24a1.36,1.36,0,0,0-1.09.35,2,2,0,0,0-.28,1.2V24.17a1.9,1.9,0,0,0,.29,1.2,1.36,1.36,0,0,0,1.08.35h10.84a14.15,14.15,0,0,0,2.52-.27L139,29.19H122.28a6.69,6.69,0,0,1-3-.61,3.87,3.87,0,0,1-1.8-1.89,8,8,0,0,1-.6-3.35V13.2a8.09,8.09,0,0,1,.6-3.36,3.93,3.93,0,0,1,1.79-1.91,6.57,6.57,0,0,1,3-.62H139L139.6,11A13.91,13.91,0,0,0,137.08,10.77Z"/><path class="cls-1" d="M168.36,13.2V24.26a20.34,20.34,0,0,0,.45,4.92h-7.4L161,26.94H161a3.87,3.87,0,0,1-1.19,1.74,3.16,3.16,0,0,1-1.89.51h-10a6.34,6.34,0,0,1-3.13-.66A4,4,0,0,1,143,26.21a14.93,14.93,0,0,1-.56-4.62A14.73,14.73,0,0,1,143,17a4,4,0,0,1,1.73-2.3A6.34,6.34,0,0,1,147.9,14h11.3q1.15,0,1.15-1V11.62q0-1-1.15-1H147.11a16.75,16.75,0,0,0-3.87.45l.52-3.75h19.16a6.61,6.61,0,0,1,3.06.63,3.9,3.9,0,0,1,1.8,1.95A8.19,8.19,0,0,1,168.36,13.2Zm-8,4.25h-8.5a1.32,1.32,0,0,0-1.08.37,2,2,0,0,0-.29,1.23v5.13a1.89,1.89,0,0,0,.29,1.2,1.36,1.36,0,0,0,1.08.35H159A1.43,1.43,0,0,0,160,25.4a1.83,1.83,0,0,0,.3-1.23Z"/><path class="cls-1" d="M190.13,7.31v4.83a29.61,29.61,0,0,0-5.49-.45h-3q-1.37,0-1.37,1.15V24.26a20.36,20.36,0,0,0,.45,4.92h-8.9a20.36,20.36,0,0,0,.45-4.92v-12a20.87,20.87,0,0,0-.45-4.92h7.67l.31,2.41h.09a2.52,2.52,0,0,1,1-1.88,5.22,5.22,0,0,1,2.7-.53Z"/><path class="cls-1" d="M210.3,7.31v3.31h-7.78V23.52a2.56,2.56,0,0,0,.44,1.75,2.11,2.11,0,0,0,1.54.45h3.26a26.33,26.33,0,0,0,2.88-.15,4.91,4.91,0,0,0,1.64-.35l-.74,4H199.77q-5.26,0-5.26-6.15V10.61h-4.18V7.31h4.18V2.86l8-1.08V7.31Z"/><path class="cls-1" d="M214.84,7.31h8.48v17a19.09,19.09,0,0,0,.47,4.92h-8.95a19.12,19.12,0,0,0,.47-4.92v-12A19.61,19.61,0,0,0,214.84,7.31ZM215.45,0h7.74V5.19h-7.74Z"/><path class="cls-1" d="M252.1,19.09v5.22q0,4.88-5.53,4.88H228.15l-.61-3.78q.81.22,1.06.27l.84.11q.6.07,1.3.1t2.06,0h9.76a1.85,1.85,0,0,0,1.26-.39,1.32,1.32,0,0,0,.45-1V23.3a1.36,1.36,0,0,0-.46-1.08,1.83,1.83,0,0,0-1.25-.4H232.4q-4.95,0-4.95-5.94V13.24a6.85,6.85,0,0,1,1.23-4.49,4.6,4.6,0,0,1,3.72-1.45h19.09l.61,3.8a9.35,9.35,0,0,0-2-.4q-1-.09-3.24-.09H236.72q-1.42,0-1.42,1.27v1q0,1.32,1.42,1.32h9.85Q252.1,14.21,252.1,19.09Z"/></g></g></svg>