<svg xmlns="http://www.w3.org/2000/svg" viewBox="0 0 109.54 9.71"><defs><style>.cls-1{fill:#57a0ff;}</style></defs><title>Recurso 3</title><g id="Capa_2" data-name="Capa 2"><g id="Sección_1_Imagen_fondo_" data-name="Sección_1 (Imagen fondo)"><g id="The_real_choice_to_satisfy_your_GIS_needs" data-name="The real choice to satisfy your GIS needs"><line x1="0.02" y1="4.85" x2="109.52" y2="4.85"/><path class="cls-1" d="M109.52,6.85c.06-.26,0-.84-.13-.73l-.11,1Z"/><path class="cls-1" d="M108.45,5a4.72,4.72,0,0,0-.28,2.24c.18-1,.23-.56.43-1.69.16-.12.28.32.25.68.06-.25.25.22.33-.41-.21-.77-.47-.8-.74-.17A2,2,0,0,1,108.45,5Z"/><path class="cls-1" d="M92.92,3.46l.1.12A.2.2,0,0,0,92.92,3.46Z"/><path class="cls-1" d="M83.3,2.92c.07,0,.1-.12.11-.21C83.34,2.77,83.28,2.83,83.3,2.92Z"/><path class="cls-1" d="M81.65,1.82l.1.07C81.71,1.8,81.68,1.75,81.65,1.82Z"/><path class="cls-1" d="M92.92,3.46l-.26-.31C92.64,3.47,92.79,3.39,92.92,3.46Z"/><path class="cls-1" d="M106.31,7.41a.64.64,0,0,0,.14-.26l-.13.11C106.31,7.3,106.31,7.35,106.31,7.41Z"/><path class="cls-1" d="M97.16,2.66h.08c0-.11,0-.25.06-.4Z"/><path class="cls-1" d="M100.41,2.5a4.93,4.93,0,0,0-.13,1.17,1.11,1.11,0,0,1,.16-.58A5.58,5.58,0,0,0,100.41,2.5Z"/><path class="cls-1" d="M105.58,4l.09-.12S105.6,3.94,105.58,4Z"/><path class="cls-1" d="M94.83,2.47a2.35,2.35,0,0,0,0-.3A1.62,1.62,0,0,0,94.83,2.47Z"/><path class="cls-1" d="M3.79,8.81c0-.06,0-.1,0-.15S3.76,8.81,3.79,8.81Z"/><path class="cls-1" d="M0,4.64l.05,0c0-.16,0-.32,0-.47Z"/><path class="cls-1" d="M78.65.74v0C78.74.66,78.7.68,78.65.74Z"/><path class="cls-1" d="M51,1.36c.31.75-.51,1,0,1.8C51,2.84,51.44,1.85,51,1.36Z"/><path class="cls-1" d="M106.22,7.29a.33.33,0,0,1-.13,0C106.15,7.33,106.19,7.33,106.22,7.29Z"/><path class="cls-1" d="M51,3.17h0l0,.08Z"/><path class="cls-1" d="M71.72,1.25a2.13,2.13,0,0,0,.07.37A1.42,1.42,0,0,0,71.72,1.25Z"/><path class="cls-1" d="M76.88,2.45l-.13-.11A.23.23,0,0,0,76.88,2.45Z"/><path class="cls-1" d="M69,2.44c-.07-.06-.09-.18-.19-.07a.64.64,0,0,0,0,.1C68.92,2.36,69,2.31,69,2.44Z"/><path class="cls-1" d="M66.25,2.44c0,.06,0,.11.05.17l.09,0Z"/><path class="cls-1" d="M12.26,8.41a5.69,5.69,0,0,1-.13-.76C12.18,8.25,11.77,8.46,12.26,8.41Z"/><path class="cls-1" d="M106.3,6.93a.68.68,0,0,1-.08.36l.09,0A1.14,1.14,0,0,0,106.3,6.93Z"/><path class="cls-1" d="M68.93,9.09,68.49,9A.82.82,0,0,0,68.93,9.09Z"/><path class="cls-1" d="M32.27,8.29l-.1.1S32.24,8.38,32.27,8.29Z"/><path class="cls-1" d="M67.17,9.09a1.64,1.64,0,0,0-.25-.58,1.24,1.24,0,0,0-.05.22Z"/><path class="cls-1" d="M12.13,7.64h0Z"/><path class="cls-1" d="M9.22,9.64c.42,0,.2-1.08.29-1.72.5-.31.23.82.4,1.38C10.22,9,10.46,8,10.7,8a1.07,1.07,0,0,1,0,.48c.33-.88,1,0,1.38-1.15a1.4,1.4,0,0,1,.05.27,11,11,0,0,1-.06-1.52c.19,0,.35-.7.42,0-.12,0-.13.27-.18.5l.2-.32c.18,1-.27.36-.27,1.13.39-.34.84-1.2,1.13-.91.06,1-.69.34-.3,1.25l-.46-.39C13,9,12.34,7.3,12.67,9c.6.3.67-.52,1.28-.22.14-.57,0-.84.09-1.4.86-1,.67,2.56,1.3,1.2.16-.68.23-2,.67-1.29l-.15,1.15c.58.11.33-1.66.95-.88-.11.45-.46.38-.37.52.4.91.28-.65.59-.65l.06,1c.62-.16,1.31-.9,2-1.08a1.5,1.5,0,0,0,0,.93c.87-.51,1.85.12,2.69.73l.32-.88c.07,0,.14.4.06.57.33.33,0-.56.17-.9.19-.06.25.51.13.77C23,7.85,24.09,7,24.7,7.94l-.12.26c.47.36.53-1.8,1-1l-.08.16c1,.38,2.16-.42,2.94.9.15-1.27,1,.57,1.08-1.2.59.88.42,1.19,1.24,1.78.22.08.33-1.1.6-1.29v.92l.37-1,.2,1.11.26-.24A1,1,0,0,1,32,7.7c.4-.42,1,.64,1,1.12L33.9,8a1.45,1.45,0,0,1-.3.74c.5-.94.09,1,.55.11a2.48,2.48,0,0,1,0-.74.73.73,0,0,0,1.14.33l-.07.64c.7.16,1.48-.31,2.26-.29-.28-.3-.22-1.4,0-1.51l.09,1c.15-.6-.24-.37.06-1.11.29.11.2,1.11,0,1.43l.36-.34a6.54,6.54,0,0,1-.08.82c.15-.61.62,1,.83-.07l0,.29c.79,0,1.14-.33,1.78-.38,0-.84.26-.66.45-1.34.47.27,1,.93,1.56.86.4-.42.12-.71.3-1.22,0,.77.6.7.3,1.25A3.15,3.15,0,0,0,45,7.71c-.09-.32-.2-.45-.14-.71s.36.32.33.69l0,.08c1-1.15,2.23,2.24,3,.64l0,.08.8-.83c.37.13-.22.58.05,1.05.86-1.28,1.36.19,2.07-.67.55,2.27,1.95-.16,2.69,1.29l0-.53c.19-.52.23.31.37.43,0-.41-.21-.48-.09-.77,1.62-.64,3.35.78,5,1.26.61.14.34-2.76,1.11-1.49l-.22,1c1.23-1.19,2.51,0,3.71-1-.07.23-.07.53-.19.52.25.72.94,0,.94-.55.19.07,0,.53.16.83s.64-.92.77-.2a.39.39,0,0,1-.12.29c.17-.35.77.09.61-.74.45.4.86-.37,1.22.12.23-.93.77.45.85-.87,0,1.36.79,1.09,1.08.46-.1.41.25.42.14,1,.33,0,.62-.27.57-1,.6,1.62,1.2-1.31,1.54.77a10.56,10.56,0,0,1,2.73-1.54c0,1.35-1,.14-.92,1.56.82-.56,1.3-1.72,2.12-1.39.21.18-.12.59-.19.82.82-.56,1.59.12,2.33-.61a.71.71,0,0,1-.16.37c.14,0,.34.2.32-.42l-.14.17c-.23-.89.57-1.86.6-2.34-.25,1.76.72.44.33,2.67a1.27,1.27,0,0,0,.19-.82c.14.12.19.36,0,.83.52-.33.33-1,.8-1A5.53,5.53,0,0,1,79,8c.24-.58.48-1.16.87-.91,0,.18,0,.41-.1.41.68-.09,1.16-1.55,1.91-1-.22,1.29.25.43.29,1.55l.4-.33-.16-.54c.35,0,.66-.8,1-.43l-.26.46L83.57,7l-.37-.42c.36-.58,0-1.42.43-1.11-.1.11.35,0,.53.67h0c.17-.36.35-.73.61-.45.07.36-.05,1.24,0,1.48.17-.94.82-.26,1-1.26a3.29,3.29,0,0,0-.05.94l.14-.76a1.06,1.06,0,0,1,.16.83c.49.14-.16-1.42.43-.81,0,.06,0,.17-.12.29.58.32,1.13-.48,1.66-.11.16,1.13-.47.28-.29,1.23.77-.2,1.6-1.35,2.35-1.09l-.14-.12c.1-1.59.56.79.94,0a2,2,0,0,0-.1.71c.51.26,1-.39,1.82-.89l-.1.41c.3.36.8.21,1.12.4.1-.41.28-.34.17-.94,1,2.33,1.92-1.25,2.81.69-.11,0-.25.36-.17.36l.76-.38c-.06-.69-.1-.42-.26-1,.1-.41.31-.73.5-.73-.34.46,0,1.11.15,1.5,0-.21,0-.45,0-.66.4,1.23.07-1.39.61-.56l0,.36c.2-.19.39-.67.61-.56.09.8-.22.37-.23,1,.31,0,.61-1.52.88-.72-.13.22-.32.23-.45.45.3.94.34.7.56.85l0,0,.52.43-.13-.26c.38-2.09.78-.38,1.3-1.75-.5,1.3-.08.75-.12,1.66.13.25.33.54.28.79.24-.73.41.58.75-.49,0,.29.26,0,.21.76.32-.23-.08-.51,0-.88.49-1,1.15,1.21,1.86-.16.61-.56.72-1.55,1.29-2a1.43,1.43,0,0,1-.16,1.07c.31.43.54.35.83,0a1.58,1.58,0,0,0,.09.8c.23-.08.16-1.07.46-.63a8.22,8.22,0,0,1-.23,1.17c.27-.27.54-.82.83-1.08A2.06,2.06,0,0,1,107,7.17a1.65,1.65,0,0,0,.92-1.27l-.2-.29c.12,0,.06.69,0,.84-.27.63-.39-.28-.41-.57l.2-.19c-.21-1.72-.81.28-1.22.18l.17-1.25-.42,1c-.09-.33-.15-1,.05-1.21-.29-.62-.26.44-.51-.24a.28.28,0,0,1,0-.22l-.29.37c.06-.26,0-.88.13-.7-.51-.72-.82.94-1,0l0-.08c-.71.42-.07.92-.6,2l-.36-2.26-.07.92c-.07,0-.22-.1-.19-.47-.27.63,0,.4-.11,1-.35-.83-1,.39-1.05-1.07-.13.7.34.54,0,1-.11-1.57-.43.27-.76-.45.1-.81.4-.38.08-1.1-.19,1.37-.63-.3-.9,0,0,1.09-.59.45-1,.82,0-.37-.86-.6-1.28-1V2.74c-.08,1.1-.52.89-.84,1.12a2.2,2.2,0,0,1,.24-1.21h-.3a.9.9,0,0,1-.36.67L97,2.5c-.4,0-.8,1-1.31.42,0,.77.41,2.14-.13,2.65a3.1,3.1,0,0,1,.1-1.3c0,.05-.17.34-.26.17l.22-.7c-.23-.31-.12.58-.31.52,0-.59-.14-.42-.11-.89,0-.06.16.24.23,0a1.33,1.33,0,0,1-.55-.91c0,.34,0,.8-.15.87-.4,0-.14-.71-.37-1-.1.41-.35,0-.36.87-.12,0-.14-.42-.18-.66-.21.39-1,.11-.73,1.05l.05.06,0,0h0c-.68.88-1.4-.5-2.07-.12v-.3c-.4.34-.89.2-1.18.84-.12,0-.28-.54-.23-.89-.31.22-.34.56-.78.07.31-.52-.11-.46.32-.38-.4-.26-.49-.73-.91.08.15-.76-.3-1-.49-.73l.28.54a.69.69,0,0,1-.59,0l.1-1c-.81-1.21-1.47,2.07-2.09,0-.22.7.44.49.25,1.31-.37-.13-.76-1.57-.88-1.57-.51-.55-.48,1.46-1,1.08.07.36.13,1.31-.27,1.64-.37-.13-.46-1.49-.22-1.78.09,0,.13.08.13.2A.53.53,0,0,0,83.54,2l0,.36c-.19-.36-.7-.33-.58-.91a.49.49,0,0,0,.09.77c-.48-.52-.75,0-1.24-.36.08.2.15.61.07.61-.73-.44-.32.68-.81.83-.28-.54.1-1.3-.39-.84-.3-.37-.06-.94.06-1.23-.45.69-.84-.45-1.1-.58l.24-.29a.4.4,0,0,1-.38.16l.14.71c-.14-.12-.26-.13-.25-.42-.14.47.11,1.18-.18,1.82-.19-.36-.57.39-.63-.56.58.32-.06-.95.43-1.1-.1.11-.21.11-.35,0a.33.33,0,0,1,.06-.25c-.56-.84-.26,1.07-.84,1,.07-.53-.13-1-.23-.9.23,0,.11.89-.1,1.3-.37-.41-.4.31-.6.26l.22.19c-.08.53-.26.46-.52.63,0-.41.24-.29.14-.47-.29.94-.65-1-1.05-.34-.19-.36,0-1-.18-1.24-.45.69-.49-.73-1-.16.14.72.16.54-.17,1.24l.78-.5-.5,1c.23,0,.49-.45.64-.33-.24.58-.21.41-.1,1-.32-1.07-.64.63-1-.1V1.64c-.56-.79-1,.91-1.71.46l.23.31c-.1.7-.45.1-.68.38a2.94,2.94,0,0,0-.22-1.18c0,.44-.53,0-.6,1.14L70.87,2c-.58-.32-.67,1.69-1.23,1.49.17-.64-.09-1.06.29-1.52-.19,0-.36-.11-.36.3-.11-.37-.52.8-.69.24-.08.26-.1.88-.32.83a1.12,1.12,0,0,1,0-.29c0,.29-.33.4-.15,1.05-.58-1.85-1.61.13-2.12-1.45A4.48,4.48,0,0,1,65,3c0-.18,0-.3.07-.23-.51-.55-.32,1.7-.9,1.09-.3-1,.31-.52.12-.88-.08-1.95-.7.27-1.1-.87l.1-.11c-.3-.66-.73.74-1.22.6a1.18,1.18,0,0,0,0-.29,2.71,2.71,0,0,1-1.44,1.6c.15-.76.21-.4.12-1.18-.21.11.06,1.24-.36,1.46a4.4,4.4,0,0,1-.48-1.61l.4,0c-.2-1.07-.52,0-.72-.15l0-.47C59,2.1,59,3.28,58.37,3.19l.07.35c-.36,1.17-.3-.66-.66.21l-.11-1.18a6.36,6.36,0,0,1-1.25,1.37,6.41,6.41,0,0,1,1-1.85.88.88,0,0,0-.92.67c.09-.11.21-.4.31-.22-.29.93-.67,1.39-1.13,1.37.08-2.3-1.22-.58-1.56-2.36-.83.85-1.64-.36-2.6-.23.34,1.79-.28.05-.22,1.88-.22.12-.31.09-.33,0l-.68-1.1c-.16-.53.21-.4.19-.82C50,1.12,50.32.49,50,0c.07.66-.17.94-.45.69l.39.85c-.69,1-.59-1.54-1.28-.57l.22-.58c-.35.34-1.31,0-1.66,1.46-.06-.21-.15-.71,0-.85-.85-.22-1.89,1.57-2.55.66l.06-.45c-.16.13-.28.84-.47.39,0-.19.06-.45,0-.47-.08.15-.42.79-.63.52l.18-.5c-.83-.59-1.27,1.23-2,1.54a2,2,0,0,0-1-2V.54c-1-.16-1.64,1.09-2.53,1.61-.55-1.43-1.88-.6-2.76-1.4a1.56,1.56,0,0,1-.18,1.16c-.21-.27-.58.92-.54-.3l.07,0C34.79.45,34.36.76,34,.73L34,2.32c-.88-2.3-2.3.85-2.77-1.22-.21.4-.47.39-.68.79V1a2.08,2.08,0,0,0-1.6-.12l.15-.61c-.41-.06-.52,2.45-.89,2.5l-.11-1.27c-.71,0-1.43-1.09-2.14.06,0-.19,0-.55.15-.6-.34,0-1.3-.86-1.18.88,0-1.13-.74-.11-1.12.39l.06-.84c-.32,1.07-.34,1.36-.79,1.66-.11-.11-.09-.67,0-.46-.36-.44-.28.79-.71.35l.16-.53c-.37-.06-.34.22-.54.84-.23.34-.7-.21-.75-1,0,.46-.25,1.08-.47.86a1,1,0,0,1,.09-.55c-.62-.57-.92,1-1.34.15a1.47,1.47,0,0,0-.07-.5c.49,0,.88.07.85.13,0-.77-.4-.91-.08-2C19.9,1,19.36,2.28,19,1.92a1.89,1.89,0,0,1-.05-.27l0-.09c-.09-.08-.17,0-.24.12-.12-.13-.2-.22-.32-.23,0-.64-.45-.34-.65-.37,0,.84-.24.71,0,1.4,0-.06,0-.1.17-.14s.06,0,.08-.09v.07l.49-.06c-.16.43-.32.79-.54.32-.1.54-.21,1.1-.28,1.36-.27-1.18-.79-1.81-.86-2.54-.6.47-1.42.31-1.8,1.9-.17.2-.2-.45-.26-.7.1-.16.22-.13.27-.36-.34.41-1,.16-1.1,1.26-.43-.5.24-1-.35-.84l.08-.34c-1.17-1.77-1.9,2.83-3.19.55a.72.72,0,0,1,.15.39c-1.47-1-3,.94-4.49-.65-.41-.32-.46.39-.71.92l-.09-.91-.43,1c-.61.77-1.06-2.22-1.83-.78l.1.61c-.28-.12-.88.36-.83-.34,0,.11-.09.63-.2.32V3l-.68.81c-.53-.34.08-1.88-.69-2A2.79,2.79,0,0,0,0,3.57c.12,0,.3.3.31.77l-.26.25C0,6-.18,7.42.46,8.39l.45-.85.14.68-.38,0c.21.64.35.07.5-.31a1.8,1.8,0,0,0,.19.75l.44-1.33c.05.55-.2,1.08.1,1.39.21-.62-.2-1.23.14-1.63.22.64.15,1.15.4.61a1.15,1.15,0,0,1-.12.75c.22-.43.59-.18.71-.92.22.78.76-.2.74,1.12.07-.32.4-1,.6-1.09-.38,1.58.77.09.67,1.79.28-1.42,1-.63,1.5-1.42,0,.11-.08.34-.13.27.28.12.36.55.54.82,0-1.18.47-1.44.7-2.17C8,8,7.47,8.23,7.58,9.32c0-1,.59-1,.48-1.74a3.18,3.18,0,0,1,.36,1.31c0-1.47.24-.25.46-1.15.38.72.1,1.38.51.93A1.14,1.14,0,0,1,9.22,9.64ZM19.08,7.1v0l-.2,0Zm.83,0a1.05,1.05,0,0,0-.36,0c0-.29,0-.59.09-.58C19.59,6.67,19.78,6.84,19.91,7.09ZM18.15,1.24c.13-.12.18,0,.19.22a.79.79,0,0,0-.23.1s0,.07,0,.1A3.26,3.26,0,0,1,18.15,1.24Z"/><path class="cls-1" d="M17.92,2.35s0,.05-.05.06a1.84,1.84,0,0,0,.08.19l0-.26Z"/><path class="cls-1" d="M93,3.6l0,0a.46.46,0,0,1,0,.12S93,3.63,93,3.6Z"/><polygon class="cls-1" points="31.35 8.7 31.35 8.49 31.27 8.68 31.35 8.7"/><path class="cls-1" d="M97.6,6.49a.62.62,0,0,0,.06.22A.82.82,0,0,0,97.6,6.49Z"/><path class="cls-1" d="M99.57,6.68l.28.3A1.15,1.15,0,0,0,99.57,6.68Z"/><path class="cls-1" d="M101.09,7.1c0-.15,0-.26,0-.36h0Z"/><path class="cls-1" d="M77,8.09a.1.1,0,0,0-.06,0C76.79,8.29,76.88,8.23,77,8.09Z"/><path class="cls-1" d="M84.16,6.12a2.21,2.21,0,0,1-.23.4C84.06,6.58,84.15,6.6,84.16,6.12Z"/><path class="cls-1" d="M69,9.11h0Z"/><path class="cls-1" d="M83.59,6.51c.13.17.23.13.33,0C83.82,6.46,83.7,6.38,83.59,6.51Z"/><path class="cls-1" d="M107.66,7.48l.07,0a.75.75,0,0,1,0-.14Z"/><path class="cls-1" d="M107.74,7.38l.08-.1S107.75,7.29,107.74,7.38Z"/><path class="cls-1" d="M108,7.07l-.17.21C107.88,7.29,108,7.31,108,7.07Z"/><path class="cls-1" d="M105.65,7.09l0,.31A1.88,1.88,0,0,0,105.65,7.09Z"/><path class="cls-1" d="M105,7.18c.15.07.36.65.57.46l0-.24C105.53,7.85,105.18,6.67,105,7.18Z"/><path class="cls-1" d="M102.5,3.4l.51.24c-.09-.33-.21-.76,0-.84C102.39,1.83,103.16,3.53,102.5,3.4Z"/><path class="cls-1" d="M100.91,2.93c.27-.15,0-.47,0-.66C100.75,2.57,100.71,2.64,100.91,2.93Z"/><path class="cls-1" d="M89.46,2.93l0-.77C89.28,2.27,89.49,2.46,89.46,2.93Z"/><polygon class="cls-1" points="87.27 6.89 87.48 7.37 87.58 6.67 87.27 6.89"/><polygon class="cls-1" points="85.98 1.43 86.07 1.32 85.72 1.59 85.98 1.43"/><path class="cls-1" d="M66.75,1.7l.06.94C67,2.47,67,1.41,66.75,1.7Z"/><path class="cls-1" d="M58.45,2.66c-.09-.47-.32-.78-.47-.31C58.17,2.41,58.35,2.78,58.45,2.66Z"/><polygon class="cls-1" points="33.55 1.12 33.72 0.81 33.4 1.07 33.55 1.12"/></g></g></g></svg>